<?xml version="1.0" encoding="iso-8859-1"?>
<!-- Generator: Adobe Illustrator 19.0.0, SVG Export Plug-In . SVG Version: 6.00 Build 0)  -->
<svg version="1.1" id="Capa_1" xmlns="http://www.w3.org/2000/svg" xmlns:xlink="http://www.w3.org/1999/xlink" x="0px" y="0px"
	 viewBox="0 0 512 512" style="enable-background:new 0 0 512 512;" xml:space="preserve">
<g>
	<g>
		<path fill="#ee076e" d="M437.019,74.98C388.667,26.628,324.38,0,256,0C187.619,0,123.332,26.629,74.98,74.98C26.629,123.332,0,187.62,0,256
			s26.629,132.668,74.98,181.02C123.332,485.371,187.619,512,256,512c68.38,0,132.667-26.628,181.019-74.98
			C485.371,388.667,512,324.38,512,256S485.371,123.333,437.019,74.98z M256,482C131.383,482,30,380.617,30,256S131.383,30,256,30
			s226,101.383,226,226S380.617,482,256,482z"/>
	</g>
</g>
<g>
	<g>
		<path fill="#ee076e" d="M128.031,186.954c-7.655-3.161-16.427,0.479-19.592,8.135C100.451,214.422,96.4,234.915,96.4,256v0.161
			c0,8.284,6.716,15,15,15s15-6.716,15-15V256c0-17.134,3.285-33.773,9.766-49.454C139.329,198.89,135.687,190.118,128.031,186.954z
			"/>
	</g>
</g>
<g>
	<g>
		<path fill="#ee076e" d="M214.298,116.688c-3.186-7.649-11.967-11.264-19.614-8.081c-19.398,8.078-36.79,19.75-51.691,34.691
			c-5.85,5.866-5.837,15.363,0.029,21.213c2.928,2.921,6.76,4.38,10.592,4.38c3.846,0,7.691-1.47,10.621-4.408
			c12.108-12.142,26.233-21.624,41.982-28.182C213.864,133.116,217.483,124.335,214.298,116.688z"/>
	</g>
</g>
<g>
	<g>
		<path fill="#ee076e" d="M403.359,194.604c-8.09-19.395-19.772-36.78-34.72-51.672c-5.869-5.847-15.366-5.831-21.214,0.04
			c-5.847,5.869-5.828,15.366,0.04,21.213c12.149,12.101,21.638,26.221,28.207,41.967c2.401,5.759,7.978,9.23,13.85,9.23
			c1.925,0,3.882-0.373,5.768-1.16C402.935,211.033,406.549,202.249,403.359,194.604z"/>
	</g>
</g>
<g>
	<g>
		<path fill="#ee076e" d="M316.831,108.405C297.519,100.439,277.053,96.4,256,96.4h-0.24c-8.284,0-15,6.716-15,15s6.716,15,15,15H256
			c17.107,0,33.725,3.276,49.389,9.739c1.872,0.772,3.809,1.137,5.715,1.137c5.894,0,11.485-3.497,13.872-9.284
			C328.135,120.334,324.489,111.565,316.831,108.405z"/>
	</g>
</g>
<g>
	<g>
		<path fill="#ee076e" d="M164.433,347.714c-12.134-12.114-21.608-26.245-28.158-41.998c-3.181-7.649-11.958-11.272-19.609-8.092
			c-7.649,3.181-11.272,11.96-8.092,19.609c8.068,19.404,19.73,36.802,34.662,51.711c2.929,2.924,6.764,4.385,10.599,4.385
			c3.843,0,7.685-1.468,10.615-4.402C170.303,363.065,170.296,353.567,164.433,347.714z"/>
	</g>
</g>
<g>
	<g>
		<path fill="#ee076e" d="M368.875,347.613c-5.859-5.858-15.354-5.856-21.212,0.004c-12.122,12.128-26.258,21.594-42.015,28.136
			c-7.65,3.176-11.278,11.954-8.102,19.605c2.396,5.771,7.978,9.253,13.859,9.253c1.916,0,3.865-0.37,5.746-1.15
			c19.407-8.058,36.812-19.71,51.729-34.635C374.737,362.967,374.734,353.469,368.875,347.613z"/>
	</g>
</g>
<g>
	<g>
		<path fill="#ee076e" d="M415.598,255.68L415.598,255.68c0.001-8.284-6.715-15-14.999-15s-15,6.716-15,15L385.6,256
			c0,17.182-3.304,33.865-9.82,49.586c-3.173,7.653,0.46,16.428,8.113,19.601c1.878,0.778,3.823,1.147,5.737,1.147
			c5.885,0,11.469-3.485,13.862-9.26c8.034-19.382,12.107-39.93,12.107-61.074c0-0.045,0-0.091-0.001-0.137V255.68z"/>
	</g>
</g>
<g>
	<g>
		<path fill="#ee076e" d="M256,385.6c-17.158,0-33.818-3.295-49.52-9.793c-7.657-3.167-16.429,0.469-19.597,8.124
			c-3.168,7.655,0.47,16.428,8.124,19.596C214.365,411.538,234.886,415.6,256,415.6h0.08c8.284,0,14.96-6.716,14.96-15
			C271.04,392.315,264.284,385.6,256,385.6z"/>
	</g>
</g>
<g>
</g>
<g>
</g>
<g>
</g>
<g>
</g>
<g>
</g>
<g>
</g>
<g>
</g>
<g>
</g>
<g>
</g>
<g>
</g>
<g>
</g>
<g>
</g>
<g>
</g>
<g>
</g>
<g>
</g>
</svg>
