<svg id="Layer_3" height="512" viewBox="0 0 64 64" width="512" xmlns="http://www.w3.org/2000/svg" data-name="Layer 3"><g fill="#d3ce48"><path d="m4 29h2v25h-2z"/><path d="m11 33.999h2v13.001h-2z"/><path d="m58 28.999h2v25.001h-2z"/><path d="m51 33.999h2v13.001h-2z"/></g><path d="m5.748 15.668a12.073 12.073 0 0 1 -2.748-7.668l2.159 1.8a13.8 13.8 0 0 0 4.841 2.608" fill="#802613"/><path d="m58.252 15.668a12.073 12.073 0 0 0 2.748-7.668l-2.159 1.8a13.8 13.8 0 0 1 -4.841 2.608" fill="#802613"/><path d="m32 17a7.838 7.838 0 0 1 -3.756-.958l-6.425-3.5a12.594 12.594 0 0 0 -6.031-1.542 12.6 12.6 0 0 0 -8.367 3.181l-5.421 4.819v5.39a8.274 8.274 0 0 0 1.5 4.748 18.432 18.432 0 0 0 15.1 7.862 18.256 18.256 0 0 0 11.4-4l2 6 2-6a18.256 18.256 0 0 0 11.4 4 18.432 18.432 0 0 0 15.1-7.862 8.274 8.274 0 0 0 1.5-4.748v-5.39l-5.421-4.819a12.6 12.6 0 0 0 -8.367-3.181 12.594 12.594 0 0 0 -6.031 1.538l-6.425 3.5a7.838 7.838 0 0 1 -3.756.962z" fill="#da327b"/><path d="m42.181 18.538-6.425 3.5a7.842 7.842 0 0 1 -7.512 0l-6.425-3.5a12.594 12.594 0 0 0 -14.4 1.643l-5.377 4.78a8.261 8.261 0 0 0 1.458 4.177 18.36 18.36 0 0 0 26.5 3.862l2 6 2-6a18.36 18.36 0 0 0 26.5-3.862 8.261 8.261 0 0 0 1.453-4.177l-5.377-4.78a12.594 12.594 0 0 0 -14.4-1.643z" fill="#dd5697"/><path d="m28 25-2.949-1.966a12.112 12.112 0 0 0 -6.718-2.034 12.122 12.122 0 0 0 -4.5.866l-2.833 1.134.81 1.621a7.922 7.922 0 0 0 7.09 4.379 7.923 7.923 0 0 0 3.931-1.044z" fill="#fff"/><path d="m36 25 2.949-1.966a12.112 12.112 0 0 1 6.718-2.034 12.122 12.122 0 0 1 4.5.866l2.833 1.134-.81 1.621a7.922 7.922 0 0 1 -7.09 4.379 7.923 7.923 0 0 1 -3.931-1.044z" fill="#fff"/><circle cx="5" cy="54" fill="#3582c0" r="2"/><circle cx="12" cy="47" fill="#3582c0" r="2"/><circle cx="59" cy="54" fill="#3582c0" r="2"/><circle cx="52" cy="47" fill="#3582c0" r="2"/></svg>