<?xml version="1.0" standalone="no"?>
<!DOCTYPE svg PUBLIC "-//W3C//DTD SVG 20010904//EN"
 "http://www.w3.org/TR/2001/REC-SVG-20010904/DTD/svg10.dtd">
<svg version="1.0" xmlns="http://www.w3.org/2000/svg"
 width="400.000000pt" height="400.000000pt" viewBox="0 0 400.000000 400.000000"
 preserveAspectRatio="xMidYMid meet">

<g transform="translate(0.000000,400.000000) scale(0.100000,-0.100000)"
fill="#000000" stroke="none">
<path d="M0 3841 l0 -158 59 -22 c32 -11 63 -21 69 -21 17 0 42 -30 36 -44 -6
-16 -123 -76 -148 -76 -15 0 -16 -141 -16 -1760 l0 -1760 2000 0 2000 0 0
2000 0 2000 -2000 0 -2000 0 0 -159z m3203 40 c85 -37 103 -101 40 -144 -66
-45 -133 -60 -237 -55 -109 6 -178 34 -203 82 -14 27 -14 31 3 43 10 7 24 13
31 13 7 0 13 4 13 8 0 10 105 55 140 60 13 2 27 5 29 8 13 13 144 2 184 -15z
m-1458 -1051 c17 -7 50 -13 74 -14 29 -1 47 -7 55 -18 12 -20 8 -26 -22 -31
-12 -2 -25 -6 -28 -10 -4 -4 -17 -7 -29 -7 -11 0 -26 -5 -32 -11 -8 -8 -17 -8
-30 0 -36 19 -227 10 -304 -14 -18 -6 -19 -5 -7 14 7 12 20 21 28 21 8 1 34
20 58 43 l42 42 83 -1 c45 0 96 -6 112 -14z m-3 -247 c4 -73 2 -135 -4 -140
-5 -2 -8 -15 -8 -29 0 -24 -2 -25 -65 -22 -44 1 -65 6 -65 14 0 7 5 16 10 19
15 9 12 25 -5 25 -8 0 -38 -11 -67 -24 -48 -22 -101 -37 -150 -41 -10 -1 -24
-7 -32 -14 -11 -9 -15 -7 -19 8 -3 12 1 22 9 25 8 3 14 17 14 31 0 14 4 25 10
25 5 0 15 18 21 40 13 43 23 48 48 26 20 -18 89 -23 164 -12 47 7 61 13 74 35
42 66 62 77 65 34z m307 -96 c26 -32 -32 -59 -91 -42 -38 10 -36 26 2 19 19
-4 30 -2 30 5 0 6 7 11 15 11 8 0 15 5 15 10 0 14 16 12 29 -3z m-411 -183
c36 -10 25 -24 -19 -24 -36 0 -40 2 -29 15 14 17 16 17 48 9z m240 -100 c-2
-5 -9 -8 -15 -8 -7 1 -13 -3 -13 -8 0 -5 -10 -8 -22 -7 -13 1 -30 -1 -38 -4
-53 -20 -160 -12 -160 12 0 11 29 23 40 16 5 -3 11 -1 14 4 8 12 197 8 194 -5z
m-198 -64 c0 -5 -7 -10 -15 -10 -8 0 -15 5 -15 10 0 6 7 10 15 10 8 0 15 -4
15 -10z m-75 -49 c9 -19 11 -32 5 -36 -6 -3 -10 -1 -10 4 0 6 -6 11 -14 11
-14 0 -28 34 -18 44 11 12 22 5 37 -23z m30 -61 c3 -5 21 -10 40 -10 18 0 56
-5 83 -12 45 -10 49 -13 43 -32 -6 -15 -18 -21 -42 -22 -19 -1 -52 -5 -74 -9
-34 -6 -43 -4 -61 17 -12 12 -24 35 -28 51 -5 22 -3 27 13 27 11 0 23 -4 26
-10z"/>
</g>
</svg>
